<svg width="30" height="20" viewBox="0 0 125 119" fill="none" xmlns="http://www.w3.org/2000/svg">
<path fill-rule="evenodd" clip-rule="evenodd" d="M42.004 25.1035H55.0252L73.7491 84.8222H62.4388L57.7815 67.8114H39.5329L34.7806 84.8222H24.8009L42.004 27.9084V25.1035ZM55.2153 59.0346L48.7523 33.7898L42.0991 59.0346H55.2153ZM93.1383 40.441H82.8735V84.8221H93.1383V40.441ZM87.8739 23.1982C84.5483 23.1982 81.8524 25.7352 81.8524 28.8648C81.8524 31.9944 84.5483 34.5314 87.8739 34.5314C91.1994 34.5314 93.8953 31.9944 93.8953 28.8648C93.8953 25.7352 91.1994 23.1982 87.8739 23.1982ZM125 119H0V0H125V119Z" fill="#CB6A1E"/>
</svg>
