<svg width="30" height="20" viewBox="0 0 120 115" fill="none" xmlns="http://www.w3.org/2000/svg">
<path fill-rule="evenodd" clip-rule="evenodd" d="M120 115H0V0H120V115ZM95.2524 48.7433V39.8242C93.7197 39.1701 84.9419 36.7638 78.0074 39.2996C68.0184 42.9523 68.3773 53.9558 72.1678 58.2744C77.0791 63.8699 89.2964 65.9561 87.2972 71.4483C86.262 74.2922 81.4289 74.7872 77.1679 73.8326C73.1998 72.9435 69.7499 70.6911 69.7499 70.6911V80.1348C69.7499 80.1348 73.1603 81.9569 77.3456 82.3902C82.7112 82.9458 89.4368 81.8969 92.8061 79.0268C98.8037 73.9177 99.7249 62.5996 88.3588 57.344C78.9006 52.9706 79.0563 51.7225 79.1227 49.4794C79.2117 46.4751 85.7939 44.6258 95.2524 48.7433ZM44.2473 23.7131C52.1171 23.9755 63.6822 27.4513 63.6822 42.2726C63.6822 57.0939 49.532 61.9572 36.6206 60.8976V81.8836H27.0024V23.9099C27.0024 23.9099 36.3776 23.4508 44.2473 23.7131ZM46.7451 51.7163C50.8928 50.266 53.5884 47.1482 53.5884 42.3054C53.5884 37.1703 50.845 33.6933 46.6494 32.7109C42.1057 31.6471 36.6206 32.2742 36.6206 32.2742V52.4989C36.6206 52.4989 44.2131 52.6016 46.7451 51.7163Z" fill="#186FB4"/>
</svg>
