<svg width="30" height="20" viewBox="0 0 110 115" fill="none" xmlns="http://www.w3.org/2000/svg">
<path d="M0 0V115H110V0H0ZM59.8616 89.6897C59.8616 100.882 53.5759 105.99 44.4174 105.99C36.1429 105.99 31.3549 101.523 28.8996 96.1071L37.3214 90.7935C38.942 93.7969 40.4152 96.3382 43.9754 96.3382C47.3638 96.3382 49.5246 94.952 49.5246 89.5357V52.8025H59.8616V89.6897ZM84.317 105.99C74.7165 105.99 68.5045 101.215 65.4844 94.952L73.9062 89.8694C76.1161 93.6429 79.0134 96.4408 84.096 96.4408C88.3683 96.4408 91.1183 94.2076 91.1183 91.1016C91.1183 87.4051 88.3192 86.096 83.5804 83.9141L81.0022 82.7589C73.5379 79.4475 68.6027 75.2634 68.6027 66.4587C68.6027 58.3471 74.5201 52.1864 83.7277 52.1864C90.308 52.1864 95.0223 54.5737 98.4107 60.8371L90.3571 66.2277C88.5893 62.9163 86.6741 61.6071 83.7031 61.6071C80.683 61.6071 78.7679 63.6094 78.7679 66.2277C78.7679 69.4621 80.683 70.7712 85.1272 72.7991L87.7054 73.9542C96.4955 77.8817 101.431 81.9118 101.431 90.9475C101.431 100.651 94.1138 105.99 84.317 105.99Z" fill="#E2FA52"/>
</svg>
